<?xml version="1.0" encoding="UTF-8" standalone="no"?>
<!-- Created with Inkscape (http://www.inkscape.org/) -->

<svg
   xmlns:dc="http://purl.org/dc/elements/1.1/"
   xmlns:cc="http://creativecommons.org/ns#"
   xmlns:rdf="http://www.w3.org/1999/02/22-rdf-syntax-ns#"
   xmlns:svg="http://www.w3.org/2000/svg"
   xmlns="http://www.w3.org/2000/svg"
   xmlns:sodipodi="http://sodipodi.sourceforge.net/DTD/sodipodi-0.dtd"
   xmlns:inkscape="http://www.inkscape.org/namespaces/inkscape"
   width="210mm"
   height="297mm"
   viewBox="0 0 210 297"
   version="1.1"
   id="svg1380"
   inkscape:version="0.92.3 (2405546, 2018-03-11)"
   sodipodi:docname="SHYCD_mask_plus_embleme.svg">
  <defs
     id="defs1374" />
  <sodipodi:namedview
     id="base"
     pagecolor="#ffffff"
     bordercolor="#666666"
     borderopacity="1.0"
     inkscape:pageopacity="0.0"
     inkscape:pageshadow="2"
     inkscape:zoom="0.98994949"
     inkscape:cx="599.2017"
     inkscape:cy="515.2212"
     inkscape:document-units="mm"
     inkscape:current-layer="layer1"
     showgrid="false"
     inkscape:window-width="1916"
     inkscape:window-height="1040"
     inkscape:window-x="0"
     inkscape:window-y="38"
     inkscape:window-maximized="0" />
  <metadata
     id="metadata1377">
    <rdf:RDF>
      <cc:Work
         rdf:about="">
        <dc:format>image/svg+xml</dc:format>
        <dc:type
           rdf:resource="http://purl.org/dc/dcmitype/StillImage" />
        <dc:title></dc:title>
      </cc:Work>
    </rdf:RDF>
  </metadata>
  <g
     inkscape:label="Layer 1"
     inkscape:groupmode="layer"
     id="layer1">
    <g
       transform="matrix(19.264393,0,0,19.264393,49.385229,75.619311)"
       id="g14">
      <path
         inkscape:connector-curvature="0"
         d="M 0,0 H 6 V 6 H 0 Z M 0,2 H 6 M 0,4 H 6 M 2,0 V 6 M 4,0 v 6"
         style="fill:none;stroke:#000000;stroke-width:0.1"
         id="path2-3" />
      <circle
         cx="3"
         cy="1"
         r="0.80000001"
         id="circle4" />
      <circle
         cx="5"
         cy="3"
         r="0.80000001"
         id="circle6" />
      <circle
         cx="1"
         cy="5"
         r="0.80000001"
         id="circle8" />
      <circle
         cx="3"
         cy="5"
         r="0.80000001"
         id="circle10" />
      <circle
         cx="5"
         cy="5"
         r="0.80000001"
         id="circle12" />
    </g>
    <path
       style="opacity:1;fill:#ff00ff;fill-opacity:1;stroke-width:0.26206723"
       d="M -5.1436714,22.740215 V 231.08121 H 213.78654 V 22.740215 Z M 107.61339,74.109006 a 55.849777,56.521646 0 0 1 55.84999,56.521484 55.849777,56.521646 0 0 1 -55.84999,56.52177 55.849777,56.521646 0 0 1 -55.849551,-56.52177 55.849777,56.521646 0 0 1 55.849551,-56.521484 z"
       id="rect1007"
       inkscape:connector-curvature="0" />
  </g>
</svg>
